<svg xmlns="http://www.w3.org/2000/svg" viewBox="0 0 64 80" x="0px" y="0px"><title>giraffe, zoo, animal, mammals, savana</title><g data-name="08"><path d="M56.8,7.4a1,1,0,0,0-1-.38l-4.4.8a15.12,15.12,0,0,0-10.55,7.56h0L40,16.94V8a3,3,0,0,0-3-3,3,3,0,0,0-3,3v7.17A11.85,11.85,0,0,0,31.5,15a11.62,11.62,0,0,0-1.5.17V8a3,3,0,0,0-3-3,3,3,0,0,0-3,3v8.94l-.87-1.56A15.12,15.12,0,0,0,12.58,7.82L8.18,7A1,1,0,0,0,7.11,8.45l3.57,7.13a9,9,0,0,0,8,4.92,8.73,8.73,0,0,0,.87,0l2.64-.26a11.74,11.74,0,0,0-2.09,5.56,12,12,0,0,0,1.66,7.45,9.47,9.47,0,0,1,.91,2.58,55.29,55.29,0,0,1,1.09,8.1C23.95,46.73,24,49,24,49a5,5,0,0,0,2,4h0a6,6,0,0,0,12,0h0a5,5,0,0,0,2-4s.06-2.27.3-5.11c.44-5.47,1.18-9.36,2.1-10.94a12,12,0,0,0-.47-12.71l-.05-.08,2.61.26q.44,0,.87,0a9,9,0,0,0,8-4.92l3.57-7.13A1,1,0,0,0,56.8,7.4ZM36.31,7.29A1,1,0,0,1,37,7a1,1,0,0,1,1,1V9H36V8A1,1,0,0,1,36.31,7.29Zm-10,0A1,1,0,0,1,27,7a1,1,0,0,1,1,1V9H26V8A1,1,0,0,1,26.31,7.29Zm-7,11.18a6.93,6.93,0,0,1-6.86-3.78L9.79,9.34l2.43.44a13.13,13.13,0,0,1,9.16,6.56l1,1.81ZM22.05,26a9.77,9.77,0,0,1,.24-1.32c0-.14.08-.27.12-.4.09-.3.18-.59.3-.88s.12-.29.19-.43.27-.54.42-.81.15-.26.23-.39l.14-.19A15.63,15.63,0,0,1,28,32.5a16.12,16.12,0,0,1-2.5,8.69c0-.42-.09-.81-.14-1.2,0-.12,0-.24,0-.36-.07-.57-.15-1.11-.23-1.63,0-.13,0-.25-.06-.37-.06-.37-.12-.74-.19-1.08,0-.16-.06-.31-.1-.46s-.12-.57-.19-.83l-.11-.44c-.06-.24-.13-.48-.2-.7l-.12-.37c-.07-.22-.15-.42-.23-.62l-.11-.27a6.28,6.28,0,0,0-.36-.71A10,10,0,0,1,22.05,26ZM32,57a4,4,0,0,1-3.89-3.08h.1A5,5,0,0,0,29,54h6a5,5,0,0,0,.8-.07h.1A4,4,0,0,1,32,57Zm4.48-5.39A3,3,0,0,1,35,52H29a3,3,0,0,1-1.47-.39h0A3,3,0,0,1,26,49s-.05-2.13-.24-4.84A17.75,17.75,0,0,0,30,32.5,17.33,17.33,0,0,0,24.92,20c.23-.23.47-.45.72-.66a1,1,0,0,0,.36-.77V11h2v5.44a1,1,0,0,0,1.28,1A9.84,9.84,0,0,1,31.59,17a10,10,0,0,1,3.14.37,1,1,0,0,0,1.27-1V11h2v7.53a1,1,0,0,0,.36.77c.25.21.5.44.73.67a18,18,0,0,0-.82,24.2C38.06,46.86,38,49,38,49A3,3,0,0,1,36.48,51.61ZM40.67,32a7.25,7.25,0,0,0-.37.75l-.12.3c-.08.2-.16.4-.23.62l-.13.41c-.07.22-.13.45-.2.69l-.12.48c-.06.25-.12.52-.18.8s-.07.35-.11.53-.12.64-.17,1c0,.17-.06.33-.09.5-.08.51-.16,1-.23,1.6,0,.17,0,.35-.06.52,0,.36-.09.72-.13,1.1A16.09,16.09,0,0,1,36,32.5a15.63,15.63,0,0,1,4.35-11l.07.11A9.86,9.86,0,0,1,41,22.7l0,.09a10,10,0,0,1,.46,1.2l.07.23a10,10,0,0,1,.27,1.23c0,.07,0,.15,0,.23A9.75,9.75,0,0,1,40.67,32ZM51.54,14.68a6.94,6.94,0,0,1-6.86,3.78l-3.07-.31,1-1.81a13.13,13.13,0,0,1,9.16-6.56l2.43-.44Z"/><path d="M30,47a1,1,0,0,0-1,1v1a1,1,0,0,0,2,0V48A1,1,0,0,0,30,47Z"/><path d="M34,47a1,1,0,0,0-1,1v1a1,1,0,0,0,2,0V48A1,1,0,0,0,34,47Z"/><path d="M25,28a1,1,0,0,0-1-1h0a1,1,0,1,0,1,1Z"/><path d="M40,27h0a1,1,0,1,0,1,1A1,1,0,0,0,40,27Z"/></g><text x="0" y="79" fill="#000000" font-size="5px" font-weight="bold" font-family="'Helvetica Neue', Helvetica, Arial-Unicode, Arial, Sans-serif">Created by Kantor Tegalsari</text><text x="0" y="84" fill="#000000" font-size="5px" font-weight="bold" font-family="'Helvetica Neue', Helvetica, Arial-Unicode, Arial, Sans-serif">from the Noun Project</text></svg>