<svg xmlns="http://www.w3.org/2000/svg" viewBox="0 0 94.86684 101.3937875" x="0px" y="0px"><title>pig</title><g data-name="Camada 2"><g data-name="Camada 1"><path d="M57.60371,38.83518l-.03944-.01972a21.61843,21.61843,0,0,0-20.25559-.00416l-.10017.05294C30.84432,42.27079,24.80709,50.14779,25.72,57.43524c.98968,7.89465,8.302,11.88037,21.69419,11.71223q.30514.00311.6072.00311c13.04391-.001,20.15127-3.94006,21.12539-11.71534C70.05963,50.14779,64.02239,42.27079,57.60371,38.83518Zm7.32481,18.0707c-.67674,5.40253-6.5505,8.10328-17.51436,7.99014-10.91716.14843-16.7987-2.58761-17.476-7.99014-.65494-5.22919,4.26753-11.61258,9.35141-14.332a17.373,17.373,0,0,1,16.288,0l.07473.03945C60.661,45.2933,65.58347,51.67669,64.92852,56.90588Z"/><path d="M34.62869,32.10485A4.73691,4.73691,0,1,0,29.892,27.36791,4.73715,4.73715,0,0,0,34.62869,32.10485Z"/><path d="M60.238,32.10485a4.73691,4.73691,0,1,0-4.73721-4.73694A4.7367,4.7367,0,0,0,60.238,32.10485Z"/><path d="M38.15564,52.36706a2.68576,2.68576,0,1,0,2.6857,2.68576A2.68586,2.68586,0,0,0,38.15564,52.36706Z"/><circle cx="56.71159" cy="55.05282" r="2.68573"/><path d="M94.55472,4.09915a5.19362,5.19362,0,0,0-3.89-3.35881c-6.188-1.25261-17.469-1.93208-25.74557,6.70808a44.54655,44.54655,0,0,0-15.508-4.03017l-4.02.001A44.473,44.473,0,0,0,29.94183,7.4418C21.6647-1.19167,10.38789-.51292,4.20223.74034a5.23234,5.23234,0,0,0-3.022,8.43542c2.56685,3.1616,3.96289,5.98171,3.93123,7.93824C5.02428,22.46574,7.50914,32.123,8.051,34.16032A56.79949,56.79949,0,0,0,6.4525,44.656C5.65743,57.51931,9.70025,67.94137,17.83777,74.002c5.44457,4.05423,12.79326,6.42594,21.25151,6.85877,3.37126.17334,6.12027.2543,8.66947.2543.57088,0,1.13241-.00312,1.68771-.01142h0c12.7481-.18372,30.43788-2.40908,36.8467-19.54356a40.47027,40.47027,0,0,0,2.11015-16.904,56.82289,56.82289,0,0,0-1.59273-10.47525c.52935-1.98813,3.03211-11.69529,2.94492-17.06675-.03191-1.95653,1.36439-4.77561,3.93124-7.93824A5.2057,5.2057,0,0,0,94.55472,4.09915ZM9.36239,17.18251c.04931-3.04016-1.59325-6.63562-4.88147-10.68674a.98114.98114,0,0,1,.56516-1.5891c6.16283-1.24709,14.51521-1.30982,20.93649,4.62154A37.71584,37.71584,0,0,0,10.65,26.696,49.51563,49.51563,0,0,1,9.36239,17.18251ZM82.31107,60.07163c-4.184,11.185-14.64651,16.51794-32.92585,16.78054H49.3847c-2.93843.04463-6.04813-.02907-10.078-.23666-7.616-.39026-14.16179-2.47343-18.93013-6.02426-9.37269-6.98021-10.08835-19.08063-9.681-25.67369C12.9153,9.00139,44.1716,7.706,45.44465,7.6697l3.91359-.001c1.32857.03321,32.57579,1.22789,34.80194,37.2489A36.35684,36.35684,0,0,1,82.31107,60.07163Zm8.075-53.57586c-3.28849,4.05216-4.93078,7.64762-4.88148,10.68674a49.6025,49.6025,0,0,1-1.291,9.53123A37.71172,37.71172,0,0,0,68.87792,9.53457c6.42232-5.937,14.77859-5.87545,20.94323-4.6279a.98144.98144,0,0,1,.56491,1.5891Z"/></g></g><text x="0" y="96.11503" fill="#000000" font-size="5px" font-weight="bold" font-family="'Helvetica Neue', Helvetica, Arial-Unicode, Arial, Sans-serif">Created by Luiz Carvalho</text><text x="0" y="101.11503" fill="#000000" font-size="5px" font-weight="bold" font-family="'Helvetica Neue', Helvetica, Arial-Unicode, Arial, Sans-serif">from the Noun Project</text></svg>