<svg xmlns:dc="http://purl.org/dc/elements/1.1/" xmlns:cc="http://creativecommons.org/ns#" xmlns:rdf="http://www.w3.org/1999/02/22-rdf-syntax-ns#" xmlns:svg="http://www.w3.org/2000/svg" xmlns="http://www.w3.org/2000/svg" xmlns:sodipodi="http://sodipodi.sourceforge.net/DTD/sodipodi-0.dtd" xmlns:inkscape="http://www.inkscape.org/namespaces/inkscape" version="1.1" x="0px" y="0px" viewBox="0 0 100 125"><g transform="translate(0,-952.36218)"><path style="text-indent:0;text-transform:none;direction:ltr;block-progression:tb;baseline-shift:baseline;color:#000000;enable-background:accumulate;" d="m 43.914722,966.36219 c -6.883827,0 -13.378352,2.12416 -18.157463,6.37676 -3.102974,2.76111 -5.427613,6.43131 -6.687947,10.84673 l -11.8445414,4.93886 c -0.7207413,0.30321 -1.2247893,1.06219 -1.2247893,1.84425 0,0.78207 0.504048,1.54104 1.2247893,1.84426 l 10.9694834,4.56376 c 0.445962,6.30659 1.822055,13.03129 5.344107,18.75519 3.72521,6.0541 9.986033,10.7881 19.501302,12.3159 l -2.906444,5.8141 -6.219165,-3.0946 c -0.940905,-0.4747 -2.228763,-0.05 -2.703306,0.8909 -0.474543,0.9411 -0.05022,2.2292 0.890685,2.7038 l 8.000534,4.0011 c 0.940349,0.4693 2.223475,0.036 2.68768,-0.9065 l 4.469052,-8.9399 c 5.92005,0.2006 12.50613,-0.6386 17.59492,-2.1882 l 3.43773,4.1262 -4.68781,4.6888 c -0.76842,0.7309 -0.78943,2.1026 -0.0437,2.8567 0.74568,0.7541 2.11721,0.7483 2.85643,-0.012 l 6.0004,-6.0017 c 0.69466,-0.6966 0.75202,-1.9301 0.12501,-2.6882 l -3.6565,-4.4075 c 7.19369,-2.9466 13.07864,-7.3761 17.34491,-12.2533 3.79223,-4.3354 6.31633,-9.0186 7.31299,-13.47252 0.99665,-4.45397 0.427,-8.8477 -2.34391,-11.94079 -0.3778,-0.41657 -0.93781,-0.66163 -1.5001,-0.65643 -3.25738,0.30309 -5.74881,1.37294 -8.96935,2.00056 -4.70105,0.0339 -9.52703,-6.68432 -13.25088,-10.44038 -5.58299,-5.60891 -12.87094,-11.56568 -23.564077,-11.56569 z m 0,4.0011 c 9.219867,0 15.350967,5.015 20.720137,10.40911 4.65677,4.49845 9.30481,11.47001 16.09482,11.59695 2.95534,-0.2795 5.24822,-1.24243 8.06304,-1.78175 1.18605,1.86887 1.53905,4.39505 0.84381,7.50207 -0.80797,3.61073 -2.98045,7.77383 -6.40668,11.69073 -6.85246,7.8339 -18.51827,14.5978 -33.34598,14.5978 -12.428313,0 -19.031169,-4.5896 -22.939031,-10.9405 -3.907862,-6.3509 -4.93783,-14.7436 -4.93783,-22.06863 0,-7.0152 2.50511,-12.16102 6.43793,-15.66056 3.932821,-3.49954 9.410166,-5.34522 15.469784,-5.34522 z M 31.00761,981.36632 c -1.656965,0 -3.000201,1.79135 -3.000201,4.0011 0,2.20975 1.343236,4.0011 3.000201,4.0011 1.656964,0 3.0002,-1.79135 3.0002,-4.0011 0,-2.20975 -1.343236,-4.0011 -3.0002,-4.0011 z m -12.844608,6.93941 c -0.141589,1.47472 -0.173663,2.72123 -0.125011,4.06362 l -4.812821,-2.00056 z m 39.565147,3.06334 c -0.95544,0.15317 -1.72027,1.08715 -1.6822,2.05423 0.0381,0.96709 0.87394,1.83804 1.83846,1.91561 8.51433,0.50094 14.28563,0.93941 16.62611,2.06307 1.17023,0.56183 1.46033,0.9373 1.62511,1.90677 0.59318,7.14285 -5.70346,11.94605 -11.71949,12.69105 -5.05002,0.5612 -11.02676,-1.0159 -16.12607,-5.1889 -0.81,-0.6711 -2.15741,-0.5445 -2.82832,0.2657 -0.67091,0.8101 -0.544358,2.1578 0.26564,2.8289 5.90143,4.8294 12.92555,6.7532 19.12628,6.0641 8.17534,-1.3124 16.62654,-8.375 15.25097,-17.31728 -0.36651,-2.1564 -1.88904,-3.9065 -3.84401,-4.84509 -5.36957,-2.14282 -9.67959,-2.0786 -18.53248,-2.43816 z" fill="#000000" fill-opacity="1" stroke="none" marker="none" visibility="visible" display="inline" overflow="visible"/></g><text x="0" y="115" fill="#000000" font-size="5px" font-weight="bold" font-family="'Helvetica Neue', Helvetica, Arial-Unicode, Arial, Sans-serif">Created by sandra</text><text x="0" y="120" fill="#000000" font-size="5px" font-weight="bold" font-family="'Helvetica Neue', Helvetica, Arial-Unicode, Arial, Sans-serif">from the Noun Project</text></svg>