<svg xmlns="http://www.w3.org/2000/svg" xmlns:xlink="http://www.w3.org/1999/xlink" version="1.1" x="0px" y="0px" viewBox="0 0 512 640" style="enable-background:new 0 0 512 512;" xml:space="preserve"><g><path d="M183.1,221c-16.6,0-30.1,13.5-30.1,30.1s13.5,30.1,30.1,30.1s30.1-13.5,30.1-30.1S199.7,221,183.1,221z M183.1,261.2   c-5.6,0-10.1-4.5-10.1-10.1s4.5-10.1,10.1-10.1s10.1,4.5,10.1,10.1C193.2,256.7,188.6,261.2,183.1,261.2z"/><path d="M360.7,251.1c0-16.6-13.5-30.1-30.1-30.1s-30.1,13.5-30.1,30.1s13.5,30.1,30.1,30.1S360.7,267.7,360.7,251.1z M320.5,251.1   c0-5.6,4.5-10.1,10.1-10.1s10.1,4.5,10.1,10.1s-4.5,10.1-10.1,10.1S320.5,256.7,320.5,251.1z"/><path d="M495.8,360.3H444c7.7-17.1,13.2-35.4,16-54.6l38.6-11.4c5.3-1.6,8.3-7.1,6.8-12.4c-1.6-5.3-7.1-8.3-12.4-6.8l-31,9.1   c0.1-2.9,0.2-5.8,0.2-8.8c0-42.1-12.6-82.6-36.4-117.1c-13.5-45.6-40.4-87.8-80-125.4c-2.2-2.1-5.3-3.1-8.3-2.6   c-3,0.4-5.7,2.2-7.2,4.9L307,75.5c-16.6-4.2-33.7-6.4-50.9-6.4c-17.3,0-34.4,2.1-51,6.4l-23.2-40.3c-1.5-2.7-4.2-4.5-7.2-4.9   s-6.1,0.5-8.3,2.6c-39.7,37.6-66.6,79.8-80.1,125.4c-23.8,34.5-36.4,75-36.4,117.1c0,2.9,0.1,5.9,0.2,8.8l-31-9.1   c-5.3-1.6-10.9,1.5-12.4,6.8c-1.6,5.3,1.5,10.9,6.8,12.4L52,305.6c2.8,19.2,8.3,37.5,16,54.6H16.2c-5.5,0-10,4.5-10,10   s4.5,10,10,10h62.2c36,60.8,102.1,101.6,177.6,101.6S397.6,441,433.5,380.3h62.2c5.5,0,10-4.5,10-10S501.3,360.3,495.8,360.3z    M256,461.8c-63.9,0-120.3-32.4-153.9-81.5h83.4c5.5,0,10-4.5,10-10s-4.5-10-10-10H90.2c-7.7-15-13.4-31.3-16.8-48.3l111,32.7   c0.9,0.3,1.9,0.4,2.8,0.4c4.3,0,8.3-2.8,9.6-7.2c1.6-5.3-1.5-10.9-6.8-12.4L70.4,290.2c-0.4-4.9-0.6-9.8-0.6-14.8   c0-38.5,11.7-75.5,33.7-107c0.6-0.9,1.1-1.9,1.4-3c11.3-39.2,33.5-75.9,66-109.1l20.6,35.8c2.3,4,7.1,5.9,11.5,4.6   c17.1-5.1,34.9-7.6,52.9-7.6s35.8,2.6,52.9,7.6c4.4,1.3,9.2-0.6,11.5-4.6L341,56.4c32.5,33.3,54.7,69.9,66,109.1   c0.3,1.1,0.8,2.1,1.4,3c22.1,31.4,33.7,68.4,33.7,107c0,5-0.2,9.9-0.6,14.8l-119.7,35.2c-5.3,1.6-8.3,7.1-6.8,12.4   c1.3,4.4,5.3,7.2,9.6,7.2c0.9,0,1.9-0.1,2.8-0.4l111-32.7c-3.4,17.1-9.1,33.3-16.8,48.3h-95.3c-5.5,0-10,4.5-10,10s4.5,10,10,10   h83.4C376.3,429.5,319.9,461.8,256,461.8z"/><path d="M291.6,379.1c-14.1,0-25.6-11.5-25.6-25.7v-35.7c0-5.5-4.5-10-10-10s-10,4.5-10,10v35.7c0,14.2-11.5,25.7-25.6,25.7   c-5.5,0-10,4.5-10,10s4.5,10,10,10c14.4,0,27.3-6.7,35.6-17.2c8.4,10.5,21.2,17.2,35.6,17.2c5.5,0,10-4.5,10-10   S297.2,379.1,291.6,379.1z"/></g><text x="0" y="527" fill="#000000" font-size="5px" font-weight="bold" font-family="'Helvetica Neue', Helvetica, Arial-Unicode, Arial, Sans-serif">Created by ibrandify</text><text x="0" y="532" fill="#000000" font-size="5px" font-weight="bold" font-family="'Helvetica Neue', Helvetica, Arial-Unicode, Arial, Sans-serif">from the Noun Project</text></svg>