<svg xmlns="http://www.w3.org/2000/svg" xmlns:xlink="http://www.w3.org/1999/xlink" version="1.1" x="0px" y="0px" viewBox="0 0 64 80" style="enable-background:new 0 0 64 64;" xml:space="preserve"><g><path d="M32,51c-3.149,0-3.996-3.114-4.031-3.247l-1.938,0.489C26.441,49.888,28.219,53,32,53c3.781,0,5.559-3.112,5.97-4.758   l-1.938-0.489C35.996,47.886,35.149,51,32,51z"/><path d="M61.234,16.827L58.95,16.37C57.724,16.124,56.466,16,55.211,16c-4.387,0-8.476,1.986-11.211,5.35V9.414l0.672-0.672   C45.528,7.886,46,6.747,46,5.535C46,3.034,43.966,1,41.465,1h-1.93C37.034,1,35,3.034,35,5.535c0,1.212,0.472,2.351,1.328,3.207   L37,9.414v3.448c0,0.627-0.118,1.24-0.352,1.823l-0.092,0.229C35.807,16.789,34.019,18,32,18c-2.019,0-3.807-1.211-4.557-3.085   l-0.092-0.229C27.118,14.102,27,13.489,27,12.862V9.414l0.672-0.672C28.528,7.886,29,6.747,29,5.535C29,3.034,26.966,1,24.465,1   h-1.93C20.034,1,18,3.034,18,5.535c0,1.212,0.472,2.351,1.328,3.207L20,9.414V21.35C17.265,17.986,13.176,16,8.789,16   c-1.255,0-2.513,0.124-3.739,0.37l-2.284,0.457C1.742,17.032,1,17.938,1,18.98c0,0.883,0.304,1.749,0.855,2.44l1.344,1.68   c1.41,1.763,3.224,3.229,5.245,4.24c2.035,1.017,4.3,1.565,6.574,1.632C15.015,29.065,15,29.156,15,29.248   c0,2.662,1.271,5.205,3.401,6.803l0.79,0.593l2.804,6.309L18.83,63h26.34l-3.165-20.048l2.804-6.309l0.791-0.593   c2.129-1.598,3.4-4.141,3.4-6.803c0-0.092-0.015-0.183-0.018-0.275c2.274-0.067,4.538-0.615,6.574-1.632   c2.021-1.012,3.835-2.477,5.245-4.24l1.344-1.681C62.696,20.729,63,19.863,63,18.98C63,17.938,62.258,17.032,61.234,16.827z    M35.576,18.99l3.095,3.095C38.881,22.295,39,22.584,39,22.879C39,23.497,38.497,24,37.879,24c-0.295,0-0.584-0.119-0.793-0.328   l-0.762-0.762C35.737,22.323,34.957,22,34.127,22c-1.041,0-2.008,0.518-2.584,1.384l-0.666,0.998   c-0.41,0.617-1.308,0.793-1.924,0.386l-0.805-0.537C27.43,23.751,27,22.948,27,22.084c0-0.511,0.15-1.006,0.434-1.432l1.075-1.613   C29.545,19.647,30.736,20,32,20C33.299,20,34.521,19.629,35.576,18.99z M22.535,3h1.93C25.862,3,27,4.138,27,5.535   c0,0.678-0.264,1.314-0.742,1.793L25,8.586v4.276c0,0.883,0.166,1.746,0.494,2.565l0.092,0.229   c0.323,0.807,0.795,1.513,1.359,2.123l-1.175,1.763C25.266,20.298,25,21.177,25,22.084c0,1.534,0.762,2.958,2.039,3.811   l0.806,0.538C28.404,26.804,29.054,27,29.723,27c1.135,0,2.188-0.563,2.818-1.508l0.666-1c0.371-0.554,1.233-0.639,1.703-0.168   l0.762,0.762C36.253,25.667,37.057,26,37.879,26C39.6,26,41,24.6,41,22.879c0-0.822-0.333-1.626-0.914-2.207l-2.963-2.963   c0.533-0.594,0.982-1.276,1.292-2.051l0.092-0.229C38.834,14.608,39,13.745,39,12.862V8.586l-1.258-1.258   C37.264,6.85,37,6.213,37,5.535C37,4.138,38.138,3,39.535,3h1.93C42.862,3,44,4.138,44,5.535c0,0.678-0.264,1.314-0.742,1.793   L42,8.586v13.981l1.843,1.105c1.281,0.768,2.233,1.959,2.741,3.328h-3.757c-2.101,0-4.021,1.318-4.775,3.279l-3.566,9.271   C33.75,39.21,32.909,39,32,39c-0.909,0-1.751,0.21-2.486,0.55l-3.566-9.271C25.193,28.318,23.274,27,21.173,27h-3.757   c0.508-1.369,1.461-2.56,2.741-3.328L22,22.566V8.586l-1.258-1.258C20.264,6.85,20,6.213,20,5.535C20,4.138,21.138,3,22.535,3z    M42,30c0.552,0,1,0.448,1,1s-0.448,1-1,1c-0.552,0-1-0.448-1-1S41.448,30,42,30z M28.684,61C28.886,60.573,29,60.1,29,59.605   C29,58.72,29.72,58,30.605,58c0.538,0,1.037,0.268,1.336,0.715l1.213,1.819c-0.036,0.153-0.06,0.309-0.082,0.466H28.684z    M34.519,58.067c-0.126,0.126-0.223,0.271-0.334,0.406l-0.579-0.868C32.935,56.6,31.813,56,30.605,56   C28.617,56,27,57.617,27,59.605c0,0.479-0.267,0.91-0.693,1.124L25.765,61h-0.113C25.877,60.364,26,59.692,26,59   c0-2.428-1.48-4.577-3.645-5.506l0.784-4.968C23.868,52.763,27.558,56,32,56c4.442,0,8.132-3.237,8.86-7.474l0.957,6.06   l-1.319,0.879C39.975,55.815,39.365,56,38.733,56c-1.385,0-2.687,0.539-3.666,1.519L34.519,58.067z M32,54   c-3.522,0-6.438-2.618-6.922-6.009c0.225-1.549,0.968-2.966,2.081-4.037C27.698,45.699,29.656,47,32,47   c2.345,0,4.304-1.303,4.841-3.049c1.114,1.072,1.856,2.495,2.08,4.039C38.438,51.381,35.522,54,32,54z M35,43c0,1.084-1.374,2-3,2   s-3-0.916-3-2s1.374-2,3-2S35,41.916,35,43z M23,31c0,0.552-0.448,1-1,1c-0.552,0-1-0.448-1-1s0.448-1,1-1   C22.552,30,23,30.448,23,31z M9.339,25.552c-1.764-0.882-3.347-2.162-4.577-3.701l-1.344-1.679C3.148,19.834,3,19.411,3,18.98   c0-0.093,0.066-0.174,0.158-0.192l2.284-0.457C6.54,18.111,7.666,18,8.789,18c3.73,0,7.213,1.662,9.57,4.49   c-0.464,0.355-0.881,0.758-1.259,1.195l-0.374-0.374c-1.448-1.449-3.265-2.478-5.253-2.974C10.576,20.113,9.654,20,8.731,20H7v2   h1.731c0.759,0,1.519,0.094,2.257,0.277c1.636,0.409,3.131,1.256,4.323,2.448l0.647,0.647c-0.266,0.517-0.488,1.056-0.644,1.618   C13.249,26.966,11.186,26.475,9.339,25.552z M19.602,34.451C17.973,33.229,17,31.284,17,29.248c0-0.083,0.013-0.165,0.016-0.248   h2.764C19.3,29.532,19,30.229,19,31c0,1.654,1.346,3,3,3c1.139,0,2.119-0.645,2.627-1.582l3.217,8.363   c-0.099,0.118-0.173,0.25-0.256,0.377c-1.204,0.679-2.219,1.62-2.988,2.731l-3.792-8.533L19.602,34.451z M22.029,55.558   C23.218,56.263,24,57.558,24,59c0,0.714-0.194,1.394-0.546,2H21.17L22.029,55.558z M35.094,61c0.134-0.569,0.415-1.095,0.839-1.519   l0.549-0.549C37.083,58.331,37.883,58,38.733,58c1.028,0,2.023-0.302,2.875-0.871l0.552-0.368L42.83,61H35.094z M44.399,34.451   l-1.208,0.905l-3.794,8.538c-0.75-1.086-1.731-2.016-2.896-2.689l-0.026,0.045c-0.098-0.16-0.195-0.322-0.319-0.469l3.217-8.363   C39.881,33.355,40.861,34,42,34c1.654,0,3-1.346,3-3c0-0.771-0.301-1.468-0.78-2h2.764C46.987,29.083,47,29.165,47,29.248   C47,31.284,46.027,33.229,44.399,34.451z M60.582,20.171l-1.344,1.68c-1.231,1.539-2.813,2.819-4.577,3.701   c-1.847,0.923-3.911,1.414-5.975,1.439c-0.157-0.562-0.379-1.101-0.644-1.618l0.647-0.647c0.285-0.285,0.595-0.557,0.921-0.807   l-1.219-1.586c-0.393,0.303-0.77,0.632-1.116,0.979L46.9,23.686c-0.378-0.437-0.795-0.841-1.259-1.195   c2.356-2.828,5.84-4.49,9.57-4.49c1.123,0,2.249,0.111,3.347,0.331l2.284,0.457C60.934,18.807,61,18.888,61,18.98   C61,19.411,60.852,19.834,60.582,20.171z"/><path d="M52.526,20.338c-0.728,0.182-1.44,0.438-2.115,0.759l0.859,1.807c0.556-0.265,1.142-0.476,1.741-0.626   C53.75,22.094,54.51,22,55.269,22H57v-2h-1.731C54.347,20,53.424,20.113,52.526,20.338z"/></g><text x="0" y="79" fill="#000000" font-size="5px" font-weight="bold" font-family="'Helvetica Neue', Helvetica, Arial-Unicode, Arial, Sans-serif">Created by Eucalyp</text><text x="0" y="84" fill="#000000" font-size="5px" font-weight="bold" font-family="'Helvetica Neue', Helvetica, Arial-Unicode, Arial, Sans-serif">from the Noun Project</text></svg>