<?xml version="1.0" encoding="UTF-8" standalone="no"?>
<svg
   xmlns:dc="http://purl.org/dc/elements/1.1/"
   xmlns:cc="http://creativecommons.org/ns#"
   xmlns:rdf="http://www.w3.org/1999/02/22-rdf-syntax-ns#"
   xmlns:svg="http://www.w3.org/2000/svg"
   xmlns="http://www.w3.org/2000/svg"
   xmlns:sodipodi="http://sodipodi.sourceforge.net/DTD/sodipodi-0.dtd"
   xmlns:inkscape="http://www.inkscape.org/namespaces/inkscape"
   version="1.1"
   x="0px"
   y="0px"
   viewBox="0 0 100.633 100.633"
   id="svg10"
   sodipodi:docname="red_giraffe.svg"
   inkscape:version="0.92.1 r15371"
   width="100.633"
   height="100.633"
   inkscape:export-filename="C:\cygwin64\home\Alexander_Pruss\android\Shogi\app\src\main\res\drawable\animal_ryu.png"
   inkscape:export-xdpi="114.47536"
   inkscape:export-ydpi="114.47536">
  <metadata
     id="metadata16">
    <rdf:RDF>
      <cc:Work
         rdf:about="">
        <dc:format>image/svg+xml</dc:format>
        <dc:type
           rdf:resource="http://purl.org/dc/dcmitype/StillImage" />
        <dc:title />
      </cc:Work>
    </rdf:RDF>
  </metadata>
  <defs
     id="defs14" />
  <sodipodi:namedview
     pagecolor="#ffffff"
     bordercolor="#666666"
     borderopacity="1"
     objecttolerance="10"
     gridtolerance="10"
     guidetolerance="10"
     inkscape:pageopacity="0"
     inkscape:pageshadow="2"
     inkscape:window-width="1366"
     inkscape:window-height="715"
     id="namedview12"
     showgrid="false"
     inkscape:snap-bbox="true"
     inkscape:zoom="5.3400704"
     inkscape:cx="37.19177"
     inkscape:cy="37.243603"
     inkscape:window-x="-8"
     inkscape:window-y="-8"
     inkscape:window-maximized="1"
     inkscape:current-layer="svg10"
     fit-margin-top="0"
     fit-margin-left="0"
     fit-margin-right="0"
     fit-margin-bottom="0"
     inkscape:snap-object-midpoints="true"
     inkscape:snap-center="true"
     showguides="true"
     inkscape:guide-bbox="true">
    <sodipodi:guide
       position="86.121457,50.316519"
       orientation="1,0"
       id="guide4505"
       inkscape:locked="false" />
    <sodipodi:guide
       position="14.511546,50.316481"
       orientation="1,0"
       id="guide4507"
       inkscape:locked="false" />
    <sodipodi:guide
       position="50.316481,86.121456"
       orientation="0,1"
       id="guide4509"
       inkscape:locked="false" />
    <sodipodi:guide
       position="50.316523,14.511543"
       orientation="0,1"
       id="guide5111"
       inkscape:locked="false" />
    <sodipodi:guide
       position="50.316481,86.121456"
       orientation="1,0"
       id="guide5127"
       inkscape:locked="false" />
    <sodipodi:guide
       position="14.511546,50.316481"
       orientation="0,1"
       id="guide5129"
       inkscape:locked="false" />
  </sodipodi:namedview>
  <rect
     style="opacity:1;fill:#ffdd55;fill-opacity:1;stroke:#000000;stroke-width:3.25;stroke-linecap:round;stroke-linejoin:round;stroke-miterlimit:4;stroke-dasharray:none;stroke-dashoffset:0"
     id="rect4493"
     width="87.193459"
     height="87.193459"
     x="6.7197742"
     y="6.7197742"
     ry="10.738318"
     rx="10.738318" />
  <path
     style="opacity:1;fill:#ff0000;fill-opacity:1;stroke:none;stroke-width:2.35324574;stroke-linecap:round;stroke-linejoin:round;stroke-miterlimit:4;stroke-dasharray:none;stroke-dashoffset:0"
     id="path4495"
     sodipodi:type="arc"
     sodipodi:cx="14.511546"
     sodipodi:cy="14.511544"
     sodipodi:rx="4.0464354"
     sodipodi:ry="3.972476"
     sodipodi:start="0"
     sodipodi:end="6.2768672"
     sodipodi:open="true"
     d="m 18.557981,14.511544 a 4.0464354,3.972476 0 0 1 -4.040043,3.972471 4.0464354,3.972476 0 0 1 -4.052807,-3.959922 4.0464354,3.972476 0 0 1 4.027241,-3.98498 4.0464354,3.972476 0 0 1 4.065529,3.947333"
     inkscape:transform-center-x="2.002716e-005"
     inkscape:transform-center-y="-35.804957" />
  <path
     transform="scale(-1)"
     style="opacity:1;fill:#ff0000;fill-opacity:1;stroke:none;stroke-width:2.35324574;stroke-linecap:round;stroke-linejoin:round;stroke-miterlimit:4;stroke-dasharray:none;stroke-dashoffset:0"
     id="path4499"
     sodipodi:type="arc"
     sodipodi:cx="-86.12146"
     sodipodi:cy="-86.12146"
     sodipodi:rx="4.0464354"
     sodipodi:ry="3.972476"
     sodipodi:start="0"
     sodipodi:end="6.2768672"
     sodipodi:open="true"
     d="m -82.075025,-86.12146 a 4.0464354,3.972476 0 0 1 -4.040044,3.972471 4.0464354,3.972476 0 0 1 -4.052806,-3.959922 4.0464354,3.972476 0 0 1 4.027241,-3.98498 4.0464354,3.972476 0 0 1 4.065529,3.947333"
     inkscape:transform-center-x="-2.1934509e-005"
     inkscape:transform-center-y="35.804956" />
  <path
     inkscape:transform-center-y="-1.983461e-005"
     inkscape:transform-center-x="-35.804956"
     d="m 18.55798,-86.12146 a 4.0464354,3.972476 0 0 1 -4.040044,3.972471 4.0464354,3.972476 0 0 1 -4.052807,-3.959922 4.0464354,3.972476 0 0 1 4.027241,-3.98498 4.0464354,3.972476 0 0 1 4.065529,3.947333"
     sodipodi:open="true"
     sodipodi:end="6.2768672"
     sodipodi:start="0"
     sodipodi:ry="3.972476"
     sodipodi:rx="4.0464354"
     sodipodi:cy="-86.12146"
     sodipodi:cx="14.511544"
     sodipodi:type="arc"
     id="path4501"
     style="opacity:1;fill:#ff0000;fill-opacity:1;stroke:none;stroke-width:2.35324574;stroke-linecap:round;stroke-linejoin:round;stroke-miterlimit:4;stroke-dasharray:none;stroke-dashoffset:0"
     transform="rotate(90)" />
  <path
     transform="matrix(0.83870968,0,0,0.85100638,50.600602,37.967085)"
     style="opacity:1;fill:#ff0000;fill-opacity:1;stroke:none;stroke-width:3.25;stroke-linecap:round;stroke-linejoin:round;stroke-miterlimit:4;stroke-dasharray:none;stroke-dashoffset:0"
     inkscape:transform-center-x="35.643146"
     d="m -48.993643,14.511544 6.157309,-3.554924 6.15731,-3.5549237 -4.104874,7.1098477 4.104873,7.109848 -6.157309,-3.554924 z"
     id="path5131"
     inkscape:connector-curvature="0"
     sodipodi:nodetypes="ccccccc" />
  <path
     inkscape:transform-center-y="-35.804957"
     inkscape:transform-center-x="2.002716e-005"
     d="m 18.557981,86.12146 a 4.0464354,3.972476 0 0 1 -4.040043,3.972471 4.0464354,3.972476 0 0 1 -4.052807,-3.959922 4.0464354,3.972476 0 0 1 4.027241,-3.98498 4.0464354,3.972476 0 0 1 4.065529,3.947333"
     sodipodi:open="true"
     sodipodi:end="6.2768672"
     sodipodi:start="0"
     sodipodi:ry="3.972476"
     sodipodi:rx="4.0464354"
     sodipodi:cy="86.12146"
     sodipodi:cx="14.511546"
     sodipodi:type="arc"
     id="path5175"
     style="opacity:1;fill:#ff0000;fill-opacity:1;stroke:none;stroke-width:2.35324574;stroke-linecap:round;stroke-linejoin:round;stroke-miterlimit:4;stroke-dasharray:none;stroke-dashoffset:0" />
  <g
     transform="matrix(1.1078939,0,0,1.1078939,14.866839,14.863916)"
     data-name="08"
     id="g4497"
     style="fill:#ff0000">
    <path
       inkscape:connector-curvature="0"
       d="m 56.8,7.4 a 1,1 0 0 0 -1,-0.38 l -4.4,0.8 a 15.12,15.12 0 0 0 -10.55,7.56 v 0 L 40,16.94 V 8 A 3,3 0 0 0 37,5 3,3 0 0 0 34,8 v 7.17 A 11.85,11.85 0 0 0 31.5,15 11.62,11.62 0 0 0 30,15.17 V 8 A 3,3 0 0 0 27,5 3,3 0 0 0 24,8 v 8.94 L 23.13,15.38 A 15.12,15.12 0 0 0 12.58,7.82 L 8.18,7 A 1,1 0 0 0 7.11,8.45 l 3.57,7.13 a 9,9 0 0 0 8,4.92 8.73,8.73 0 0 0 0.87,0 l 2.64,-0.26 a 11.74,11.74 0 0 0 -2.09,5.56 12,12 0 0 0 1.66,7.45 9.47,9.47 0 0 1 0.91,2.58 55.29,55.29 0 0 1 1.09,8.1 C 23.95,46.73 24,49 24,49 a 5,5 0 0 0 2,4 v 0 a 6,6 0 0 0 12,0 v 0 a 5,5 0 0 0 2,-4 c 0,0 0.06,-2.27 0.3,-5.11 0.44,-5.47 1.18,-9.36 2.1,-10.94 A 12,12 0 0 0 41.93,20.24 l -0.05,-0.08 2.61,0.26 q 0.44,0 0.87,0 a 9,9 0 0 0 8,-4.92 L 56.93,8.37 A 1,1 0 0 0 56.8,7.4 Z M 36.31,7.29 A 1,1 0 0 1 37,7 1,1 0 0 1 38,8 V 9 H 36 V 8 a 1,1 0 0 1 0.31,-0.71 z m -10,0 A 1,1 0 0 1 27,7 1,1 0 0 1 28,8 V 9 H 26 V 8 a 1,1 0 0 1 0.31,-0.71 z m -7,11.18 A 6.93,6.93 0 0 1 12.45,14.69 L 9.79,9.34 12.22,9.78 a 13.13,13.13 0 0 1 9.16,6.56 l 1,1.81 z M 22.05,26 a 9.77,9.77 0 0 1 0.24,-1.32 c 0,-0.14 0.08,-0.27 0.12,-0.4 0.09,-0.3 0.18,-0.59 0.3,-0.88 0.12,-0.29 0.12,-0.29 0.19,-0.43 0.07,-0.14 0.27,-0.54 0.42,-0.81 0.15,-0.27 0.15,-0.26 0.23,-0.39 l 0.14,-0.19 A 15.63,15.63 0 0 1 28,32.5 16.12,16.12 0 0 1 25.5,41.19 c 0,-0.42 -0.09,-0.81 -0.14,-1.2 0,-0.12 0,-0.24 0,-0.36 -0.07,-0.57 -0.15,-1.11 -0.23,-1.63 0,-0.13 0,-0.25 -0.06,-0.37 -0.06,-0.37 -0.12,-0.74 -0.19,-1.08 0,-0.16 -0.06,-0.31 -0.1,-0.46 -0.04,-0.15 -0.12,-0.57 -0.19,-0.83 l -0.11,-0.44 c -0.06,-0.24 -0.13,-0.48 -0.2,-0.7 L 24.16,33.75 C 24.09,33.53 24.01,33.33 23.93,33.13 L 23.82,32.86 A 6.28,6.28 0 0 0 23.46,32.15 10,10 0 0 1 22.05,26 Z M 32,57 a 4,4 0 0 1 -3.89,-3.08 h 0.1 A 5,5 0 0 0 29,54 h 6 a 5,5 0 0 0 0.8,-0.07 h 0.1 A 4,4 0 0 1 32,57 Z m 4.48,-5.39 A 3,3 0 0 1 35,52 h -6 a 3,3 0 0 1 -1.47,-0.39 v 0 A 3,3 0 0 1 26,49 c 0,0 -0.05,-2.13 -0.24,-4.84 A 17.75,17.75 0 0 0 30,32.5 17.33,17.33 0 0 0 24.92,20 c 0.23,-0.23 0.47,-0.45 0.72,-0.66 A 1,1 0 0 0 26,18.57 V 11 h 2 v 5.44 a 1,1 0 0 0 1.28,1 9.84,9.84 0 0 1 2.31,-0.44 10,10 0 0 1 3.14,0.37 1,1 0 0 0 1.27,-1 V 11 h 2 v 7.53 a 1,1 0 0 0 0.36,0.77 c 0.25,0.21 0.5,0.44 0.73,0.67 a 18,18 0 0 0 -0.82,24.2 C 38.06,46.86 38,49 38,49 a 3,3 0 0 1 -1.52,2.61 z M 40.67,32 a 7.25,7.25 0 0 0 -0.37,0.75 l -0.12,0.3 c -0.08,0.2 -0.16,0.4 -0.23,0.62 l -0.13,0.41 c -0.07,0.22 -0.13,0.45 -0.2,0.69 l -0.12,0.48 c -0.06,0.25 -0.12,0.52 -0.18,0.8 -0.06,0.28 -0.07,0.35 -0.11,0.53 -0.04,0.18 -0.12,0.64 -0.17,1 0,0.17 -0.06,0.33 -0.09,0.5 -0.08,0.51 -0.16,1 -0.23,1.6 0,0.17 0,0.35 -0.06,0.52 0,0.36 -0.09,0.72 -0.13,1.1 A 16.09,16.09 0 0 1 36,32.5 a 15.63,15.63 0 0 1 4.35,-11 l 0.07,0.11 A 9.86,9.86 0 0 1 41,22.7 v 0.09 a 10,10 0 0 1 0.46,1.2 l 0.07,0.23 a 10,10 0 0 1 0.27,1.23 c 0,0.07 0,0.15 0,0.23 A 9.75,9.75 0 0 1 40.67,32 Z M 51.54,14.68 a 6.94,6.94 0 0 1 -6.86,3.78 l -3.07,-0.31 1,-1.81 A 13.13,13.13 0 0 1 51.77,9.78 L 54.2,9.34 Z"
       id="path4487"
       style="fill:#ff0000" />
    <path
       inkscape:connector-curvature="0"
       d="m 30,47 a 1,1 0 0 0 -1,1 v 1 a 1,1 0 0 0 2,0 v -1 a 1,1 0 0 0 -1,-1 z"
       id="path4489"
       style="fill:#ff0000" />
    <path
       inkscape:connector-curvature="0"
       d="m 34,47 a 1,1 0 0 0 -1,1 v 1 a 1,1 0 0 0 2,0 v -1 a 1,1 0 0 0 -1,-1 z"
       id="path4491"
       style="fill:#ff0000" />
    <path
       inkscape:connector-curvature="0"
       d="m 25,28 a 1,1 0 0 0 -1,-1 v 0 a 1,1 0 1 0 1,1 z"
       id="path4493"
       style="fill:#ff0000" />
    <path
       inkscape:connector-curvature="0"
       d="m 40,27 v 0 a 1,1 0 1 0 1,1 1,1 0 0 0 -1,-1 z"
       id="path4495-1"
       style="fill:#ff0000" />
  </g>
  <path
     sodipodi:nodetypes="ccccccc"
     inkscape:connector-curvature="0"
     id="path5700"
     d="m 50.316502,9.5091594 3.025263,5.1641946 3.025262,5.164196 -6.050525,-3.442798 -6.050526,3.442797 3.025263,-5.164195 z"
     style="opacity:1;fill:#ff0000;fill-opacity:1;stroke:none;stroke-width:2.74571586;stroke-linecap:round;stroke-linejoin:round;stroke-miterlimit:4;stroke-dasharray:none;stroke-dashoffset:0"
     inkscape:transform-center-y="-35.643146" />
  <path
     style="opacity:1;fill:#ff0000;fill-opacity:1;stroke:none;stroke-width:2.74571586;stroke-linecap:round;stroke-linejoin:round;stroke-miterlimit:4;stroke-dasharray:none;stroke-dashoffset:0"
     d="m 91.123844,50.316502 -5.164195,3.025263 -5.164196,3.025262 3.442798,-6.050525 -3.442797,-6.050526 5.164195,3.025263 z"
     id="path5702"
     inkscape:connector-curvature="0"
     sodipodi:nodetypes="ccccccc"
     inkscape:transform-center-x="-35.643146" />
  <path
     sodipodi:nodetypes="ccccccc"
     inkscape:connector-curvature="0"
     id="path5704"
     d="m 50.316501,91.123844 -3.025263,-5.164195 -3.025262,-5.164196 6.050525,3.442798 6.050526,-3.442797 -3.025263,5.164195 z"
     style="opacity:1;fill:#ff0000;fill-opacity:1;stroke:none;stroke-width:2.74571586;stroke-linecap:round;stroke-linejoin:round;stroke-miterlimit:4;stroke-dasharray:none;stroke-dashoffset:0"
     inkscape:transform-center-y="35.643146" />
</svg>
