<?xml version="1.0" encoding="UTF-8" standalone="no"?>
<svg
   xmlns:dc="http://purl.org/dc/elements/1.1/"
   xmlns:cc="http://creativecommons.org/ns#"
   xmlns:rdf="http://www.w3.org/1999/02/22-rdf-syntax-ns#"
   xmlns:svg="http://www.w3.org/2000/svg"
   xmlns="http://www.w3.org/2000/svg"
   xmlns:sodipodi="http://sodipodi.sourceforge.net/DTD/sodipodi-0.dtd"
   xmlns:inkscape="http://www.inkscape.org/namespaces/inkscape"
   version="1.1"
   x="0px"
   y="0px"
   viewBox="0 0 100.633 100.633"
   id="svg10"
   sodipodi:docname="red_giraffe.svg"
   inkscape:version="0.92.1 r15371"
   width="100.633"
   height="100.633"
   inkscape:export-filename="C:\cygwin64\home\Alexander_Pruss\android\Shogi\app\src\main\res\drawable\animal_hi.png"
   inkscape:export-xdpi="114.47536"
   inkscape:export-ydpi="114.47536">
  <metadata
     id="metadata16">
    <rdf:RDF>
      <cc:Work
         rdf:about="">
        <dc:format>image/svg+xml</dc:format>
        <dc:type
           rdf:resource="http://purl.org/dc/dcmitype/StillImage" />
        <dc:title></dc:title>
      </cc:Work>
    </rdf:RDF>
  </metadata>
  <defs
     id="defs14" />
  <sodipodi:namedview
     pagecolor="#ffffff"
     bordercolor="#666666"
     borderopacity="1"
     objecttolerance="10"
     gridtolerance="10"
     guidetolerance="10"
     inkscape:pageopacity="0"
     inkscape:pageshadow="2"
     inkscape:window-width="1366"
     inkscape:window-height="715"
     id="namedview12"
     showgrid="false"
     inkscape:snap-bbox="true"
     inkscape:zoom="2.6700352"
     inkscape:cx="6.9637244"
     inkscape:cy="13.170391"
     inkscape:window-x="-8"
     inkscape:window-y="-8"
     inkscape:window-maximized="1"
     inkscape:current-layer="svg10"
     fit-margin-top="0"
     fit-margin-left="0"
     fit-margin-right="0"
     fit-margin-bottom="0"
     inkscape:snap-object-midpoints="true"
     inkscape:snap-center="true"
     showguides="true"
     inkscape:guide-bbox="true">
    <sodipodi:guide
       position="86.121457,50.316519"
       orientation="1,0"
       id="guide4505"
       inkscape:locked="false" />
    <sodipodi:guide
       position="14.511546,50.316481"
       orientation="1,0"
       id="guide4507"
       inkscape:locked="false" />
    <sodipodi:guide
       position="50.316481,86.121456"
       orientation="0,1"
       id="guide4509"
       inkscape:locked="false" />
    <sodipodi:guide
       position="50.316523,14.511543"
       orientation="0,1"
       id="guide5111"
       inkscape:locked="false" />
    <sodipodi:guide
       position="50.316481,86.121456"
       orientation="1,0"
       id="guide5127"
       inkscape:locked="false" />
    <sodipodi:guide
       position="14.511546,50.316481"
       orientation="0,1"
       id="guide5129"
       inkscape:locked="false" />
  </sodipodi:namedview>
  <rect
     style="opacity:1;fill:#ffdd55;fill-opacity:1;stroke:#000000;stroke-width:3.25;stroke-linecap:round;stroke-linejoin:round;stroke-miterlimit:4;stroke-dasharray:none;stroke-dashoffset:0"
     id="rect4493"
     width="87.193459"
     height="87.193459"
     x="6.7197742"
     y="6.7197742"
     ry="10.738318"
     rx="10.738318" />
  <path
     style="opacity:1;fill:#ff0000;fill-opacity:1;stroke:none;stroke-width:2.35324574;stroke-linecap:round;stroke-linejoin:round;stroke-miterlimit:4;stroke-dasharray:none;stroke-dashoffset:0"
     id="path4495"
     sodipodi:type="arc"
     sodipodi:cx="14.511546"
     sodipodi:cy="14.511544"
     sodipodi:rx="4.0464354"
     sodipodi:ry="3.972476"
     sodipodi:start="0"
     sodipodi:end="6.2768672"
     sodipodi:open="true"
     d="m 18.557981,14.511544 a 4.0464354,3.972476 0 0 1 -4.040043,3.972471 4.0464354,3.972476 0 0 1 -4.052807,-3.959922 4.0464354,3.972476 0 0 1 4.027241,-3.98498 4.0464354,3.972476 0 0 1 4.065529,3.947333"
     inkscape:transform-center-x="2.002716e-005"
     inkscape:transform-center-y="-35.804957" />
  <path
     transform="scale(-1)"
     style="opacity:1;fill:#ff0000;fill-opacity:1;stroke:none;stroke-width:2.35324574;stroke-linecap:round;stroke-linejoin:round;stroke-miterlimit:4;stroke-dasharray:none;stroke-dashoffset:0"
     id="path4499"
     sodipodi:type="arc"
     sodipodi:cx="-86.12146"
     sodipodi:cy="-86.12146"
     sodipodi:rx="4.0464354"
     sodipodi:ry="3.972476"
     sodipodi:start="0"
     sodipodi:end="6.2768672"
     sodipodi:open="true"
     d="m -82.075025,-86.12146 a 4.0464354,3.972476 0 0 1 -4.040044,3.972471 4.0464354,3.972476 0 0 1 -4.052806,-3.959922 4.0464354,3.972476 0 0 1 4.027241,-3.98498 4.0464354,3.972476 0 0 1 4.065529,3.947333"
     inkscape:transform-center-x="-2.1934509e-005"
     inkscape:transform-center-y="35.804956" />
  <path
     inkscape:transform-center-y="-1.983461e-005"
     inkscape:transform-center-x="-35.804956"
     d="m 18.55798,-86.12146 a 4.0464354,3.972476 0 0 1 -4.040044,3.972471 4.0464354,3.972476 0 0 1 -4.052807,-3.959922 4.0464354,3.972476 0 0 1 4.027241,-3.98498 4.0464354,3.972476 0 0 1 4.065529,3.947333"
     sodipodi:open="true"
     sodipodi:end="6.2768672"
     sodipodi:start="0"
     sodipodi:ry="3.972476"
     sodipodi:rx="4.0464354"
     sodipodi:cy="-86.12146"
     sodipodi:cx="14.511544"
     sodipodi:type="arc"
     id="path4501"
     style="opacity:1;fill:#ff0000;fill-opacity:1;stroke:none;stroke-width:2.35324574;stroke-linecap:round;stroke-linejoin:round;stroke-miterlimit:4;stroke-dasharray:none;stroke-dashoffset:0"
     transform="rotate(90)" />
  <g
     transform="translate(18.316504,18.316504)"
     id="g8"
     style="fill:#ff0000">
    <path
       inkscape:connector-curvature="0"
       d="m 32,51 c -3.149,0 -3.996,-3.114 -4.031,-3.247 l -1.938,0.489 C 26.441,49.888 28.219,53 32,53 c 3.781,0 5.559,-3.112 5.97,-4.758 L 36.032,47.753 C 35.996,47.886 35.149,51 32,51 Z"
       id="path2"
       style="fill:#ff0000" />
    <path
       inkscape:connector-curvature="0"
       d="M 61.234,16.827 58.95,16.37 C 57.724,16.124 56.466,16 55.211,16 50.824,16 46.735,17.986 44,21.35 V 9.414 L 44.672,8.742 C 45.528,7.886 46,6.747 46,5.535 46,3.034 43.966,1 41.465,1 h -1.93 C 37.034,1 35,3.034 35,5.535 c 0,1.212 0.472,2.351 1.328,3.207 L 37,9.414 v 3.448 c 0,0.627 -0.118,1.24 -0.352,1.823 l -0.092,0.229 C 35.807,16.789 34.019,18 32,18 29.981,18 28.193,16.789 27.443,14.915 L 27.351,14.686 C 27.118,14.102 27,13.489 27,12.862 V 9.414 L 27.672,8.742 C 28.528,7.886 29,6.747 29,5.535 29,3.034 26.966,1 24.465,1 h -1.93 C 20.034,1 18,3.034 18,5.535 c 0,1.212 0.472,2.351 1.328,3.207 L 20,9.414 V 21.35 C 17.265,17.986 13.176,16 8.789,16 7.534,16 6.276,16.124 5.05,16.37 L 2.766,16.827 C 1.742,17.032 1,17.938 1,18.98 c 0,0.883 0.304,1.749 0.855,2.44 l 1.344,1.68 c 1.41,1.763 3.224,3.229 5.245,4.24 2.035,1.017 4.3,1.565 6.574,1.632 C 15.015,29.065 15,29.156 15,29.248 c 0,2.662 1.271,5.205 3.401,6.803 l 0.79,0.593 2.804,6.309 L 18.83,63 H 45.17 L 42.005,42.952 44.809,36.643 45.6,36.05 c 2.129,-1.598 3.4,-4.141 3.4,-6.803 0,-0.092 -0.015,-0.183 -0.018,-0.275 2.274,-0.067 4.538,-0.615 6.574,-1.632 2.021,-1.012 3.835,-2.477 5.245,-4.24 l 1.344,-1.681 C 62.696,20.729 63,19.863 63,18.98 63,17.938 62.258,17.032 61.234,16.827 Z m -25.658,2.163 3.095,3.095 C 38.881,22.295 39,22.584 39,22.879 39,23.497 38.497,24 37.879,24 37.584,24 37.295,23.881 37.086,23.672 L 36.324,22.91 C 35.737,22.323 34.957,22 34.127,22 c -1.041,0 -2.008,0.518 -2.584,1.384 l -0.666,0.998 c -0.41,0.617 -1.308,0.793 -1.924,0.386 L 28.148,24.231 C 27.43,23.751 27,22.948 27,22.084 c 0,-0.511 0.15,-1.006 0.434,-1.432 l 1.075,-1.613 C 29.545,19.647 30.736,20 32,20 c 1.299,0 2.521,-0.371 3.576,-1.01 z M 22.535,3 h 1.93 C 25.862,3 27,4.138 27,5.535 27,6.213 26.736,6.849 26.258,7.328 L 25,8.586 v 4.276 c 0,0.883 0.166,1.746 0.494,2.565 l 0.092,0.229 c 0.323,0.807 0.795,1.513 1.359,2.123 L 25.77,19.542 C 25.266,20.298 25,21.177 25,22.084 c 0,1.534 0.762,2.958 2.039,3.811 l 0.806,0.538 c 0.559,0.371 1.209,0.567 1.878,0.567 1.135,0 2.188,-0.563 2.818,-1.508 l 0.666,-1 c 0.371,-0.554 1.233,-0.639 1.703,-0.168 l 0.762,0.762 C 36.253,25.667 37.057,26 37.879,26 39.6,26 41,24.6 41,22.879 41,22.057 40.667,21.253 40.086,20.672 l -2.963,-2.963 c 0.533,-0.594 0.982,-1.276 1.292,-2.051 l 0.092,-0.229 C 38.834,14.608 39,13.745 39,12.862 V 8.586 L 37.742,7.328 C 37.264,6.85 37,6.213 37,5.535 37,4.138 38.138,3 39.535,3 h 1.93 C 42.862,3 44,4.138 44,5.535 44,6.213 43.736,6.849 43.258,7.328 L 42,8.586 v 13.981 l 1.843,1.105 c 1.281,0.768 2.233,1.959 2.741,3.328 h -3.757 c -2.101,0 -4.021,1.318 -4.775,3.279 L 34.486,39.55 C 33.75,39.21 32.909,39 32,39 c -0.909,0 -1.751,0.21 -2.486,0.55 L 25.948,30.279 C 25.193,28.318 23.274,27 21.173,27 h -3.757 c 0.508,-1.369 1.461,-2.56 2.741,-3.328 L 22,22.566 V 8.586 L 20.742,7.328 C 20.264,6.85 20,6.213 20,5.535 20,4.138 21.138,3 22.535,3 Z M 42,30 c 0.552,0 1,0.448 1,1 0,0.552 -0.448,1 -1,1 -0.552,0 -1,-0.448 -1,-1 0,-0.552 0.448,-1 1,-1 z M 28.684,61 C 28.886,60.573 29,60.1 29,59.605 29,58.72 29.72,58 30.605,58 c 0.538,0 1.037,0.268 1.336,0.715 l 1.213,1.819 c -0.036,0.153 -0.06,0.309 -0.082,0.466 z m 5.835,-2.933 c -0.126,0.126 -0.223,0.271 -0.334,0.406 L 33.606,57.605 C 32.935,56.6 31.813,56 30.605,56 28.617,56 27,57.617 27,59.605 c 0,0.479 -0.267,0.91 -0.693,1.124 L 25.765,61 H 25.652 C 25.877,60.364 26,59.692 26,59 26,56.572 24.52,54.423 22.355,53.494 l 0.784,-4.968 C 23.868,52.763 27.558,56 32,56 c 4.442,0 8.132,-3.237 8.86,-7.474 l 0.957,6.06 -1.319,0.879 C 39.975,55.815 39.365,56 38.733,56 c -1.385,0 -2.687,0.539 -3.666,1.519 z M 32,54 c -3.522,0 -6.438,-2.618 -6.922,-6.009 0.225,-1.549 0.968,-2.966 2.081,-4.037 C 27.698,45.699 29.656,47 32,47 c 2.345,0 4.304,-1.303 4.841,-3.049 1.114,1.072 1.856,2.495 2.08,4.039 C 38.438,51.381 35.522,54 32,54 Z m 3,-11 c 0,1.084 -1.374,2 -3,2 -1.626,0 -3,-0.916 -3,-2 0,-1.084 1.374,-2 3,-2 1.626,0 3,0.916 3,2 z M 23,31 c 0,0.552 -0.448,1 -1,1 -0.552,0 -1,-0.448 -1,-1 0,-0.552 0.448,-1 1,-1 0.552,0 1,0.448 1,1 z M 9.339,25.552 C 7.575,24.67 5.992,23.39 4.762,21.851 L 3.418,20.172 C 3.148,19.834 3,19.411 3,18.98 3,18.887 3.066,18.806 3.158,18.788 L 5.442,18.331 C 6.54,18.111 7.666,18 8.789,18 c 3.73,0 7.213,1.662 9.57,4.49 -0.464,0.355 -0.881,0.758 -1.259,1.195 L 16.726,23.311 C 15.278,21.862 13.461,20.833 11.473,20.337 10.576,20.113 9.654,20 8.731,20 H 7 v 2 h 1.731 c 0.759,0 1.519,0.094 2.257,0.277 1.636,0.409 3.131,1.256 4.323,2.448 l 0.647,0.647 c -0.266,0.517 -0.488,1.056 -0.644,1.618 -2.065,-0.024 -4.128,-0.515 -5.975,-1.438 z m 10.263,8.899 C 17.973,33.229 17,31.284 17,29.248 17,29.165 17.013,29.083 17.016,29 H 19.78 C 19.3,29.532 19,30.229 19,31 c 0,1.654 1.346,3 3,3 1.139,0 2.119,-0.645 2.627,-1.582 l 3.217,8.363 c -0.099,0.118 -0.173,0.25 -0.256,0.377 -1.204,0.679 -2.219,1.62 -2.988,2.731 l -3.792,-8.533 z m 2.427,21.107 c 1.189,0.705 1.971,2 1.971,3.442 0,0.714 -0.194,1.394 -0.546,2 H 21.17 Z M 35.094,61 c 0.134,-0.569 0.415,-1.095 0.839,-1.519 l 0.549,-0.549 C 37.083,58.331 37.883,58 38.733,58 c 1.028,0 2.023,-0.302 2.875,-0.871 L 42.16,56.761 42.83,61 Z m 9.305,-26.549 -1.208,0.905 -3.794,8.538 c -0.75,-1.086 -1.731,-2.016 -2.896,-2.689 L 36.475,41.25 C 36.377,41.09 36.28,40.928 36.156,40.781 l 3.217,-8.363 C 39.881,33.355 40.861,34 42,34 c 1.654,0 3,-1.346 3,-3 0,-0.771 -0.301,-1.468 -0.78,-2 h 2.764 c 0.003,0.083 0.016,0.165 0.016,0.248 0,2.036 -0.973,3.981 -2.601,5.203 z m 16.183,-14.28 -1.344,1.68 c -1.231,1.539 -2.813,2.819 -4.577,3.701 -1.847,0.923 -3.911,1.414 -5.975,1.439 -0.157,-0.562 -0.379,-1.101 -0.644,-1.618 l 0.647,-0.647 c 0.285,-0.285 0.595,-0.557 0.921,-0.807 l -1.219,-1.586 c -0.393,0.303 -0.77,0.632 -1.116,0.979 L 46.9,23.686 c -0.378,-0.437 -0.795,-0.841 -1.259,-1.195 2.356,-2.828 5.84,-4.49 9.57,-4.49 1.123,0 2.249,0.111 3.347,0.331 l 2.284,0.457 C 60.934,18.807 61,18.888 61,18.98 c 0,0.431 -0.148,0.854 -0.418,1.191 z"
       id="path4"
       style="fill:#ff0000" />
    <path
       inkscape:connector-curvature="0"
       d="m 52.526,20.338 c -0.728,0.182 -1.44,0.438 -2.115,0.759 l 0.859,1.807 c 0.556,-0.265 1.142,-0.476 1.741,-0.626 C 53.75,22.094 54.51,22 55.269,22 H 57 v -2 h -1.731 c -0.922,0 -1.845,0.113 -2.743,0.338 z"
       id="path6"
       style="fill:#ff0000" />
  </g>
  <path
     sodipodi:type="star"
     style="opacity:1;fill:#ff0000;fill-opacity:1;stroke:none;stroke-width:3.25;stroke-linecap:round;stroke-linejoin:round;stroke-miterlimit:4;stroke-dasharray:none;stroke-dashoffset:0"
     id="path5131"
     sodipodi:sides="3"
     sodipodi:cx="-40.783897"
     sodipodi:cy="14.511544"
     sodipodi:r1="8.2097454"
     sodipodi:r2="4.1048727"
     sodipodi:arg1="3.1415927"
     sodipodi:arg2="4.1887902"
     inkscape:flatsided="false"
     inkscape:rounded="0"
     inkscape:randomized="0"
     d="m -48.993643,14.511544 6.157309,-3.554924 6.15731,-3.5549237 -1e-6,7.1098477 0,7.109848 -6.157309,-3.554924 z"
     inkscape:transform-center-x="35.643146"
     transform="matrix(0.83870968,0,0,0.85100638,50.600602,37.967085)" />
  <path
     transform="matrix(0,0.83870968,-0.85100638,0,62.665918,50.600602)"
     d="m -48.993643,14.511544 6.157309,-3.554924 6.15731,-3.5549237 -1e-6,7.1098477 0,7.109848 -6.157309,-3.554924 z"
     inkscape:randomized="0"
     inkscape:rounded="0"
     inkscape:flatsided="false"
     sodipodi:arg2="4.1887902"
     sodipodi:arg1="3.1415927"
     sodipodi:r2="4.1048727"
     sodipodi:r1="8.2097454"
     sodipodi:cy="14.511544"
     sodipodi:cx="-40.783897"
     sodipodi:sides="3"
     id="path5133"
     style="opacity:1;fill:#ff0000;fill-opacity:1;stroke:none;stroke-width:3.25;stroke-linecap:round;stroke-linejoin:round;stroke-miterlimit:4;stroke-dasharray:none;stroke-dashoffset:0"
     sodipodi:type="star"
     inkscape:transform-center-y="-35.643146" />
  <path
     sodipodi:type="star"
     style="opacity:1;fill:#ff0000;fill-opacity:1;stroke:none;stroke-width:3.25;stroke-linecap:round;stroke-linejoin:round;stroke-miterlimit:4;stroke-dasharray:none;stroke-dashoffset:0"
     id="path5135"
     sodipodi:sides="3"
     sodipodi:cx="-40.783897"
     sodipodi:cy="14.511544"
     sodipodi:r1="8.2097454"
     sodipodi:r2="4.1048727"
     sodipodi:arg1="3.1415927"
     sodipodi:arg2="4.1887902"
     inkscape:flatsided="false"
     inkscape:rounded="0"
     inkscape:randomized="0"
     d="m -48.993643,14.511544 6.157309,-3.554924 6.15731,-3.5549237 -1e-6,7.1098477 0,7.109848 -6.157309,-3.554924 z"
     transform="matrix(-0.83870968,0,0,-0.85100638,50.032401,62.665918)"
     inkscape:transform-center-x="-35.643146" />
  <path
     transform="matrix(0,-0.83870968,0.85100638,0,37.967085,50.032401)"
     d="m -48.993643,14.511544 6.157309,-3.554924 6.15731,-3.5549237 -1e-6,7.1098477 0,7.109848 -6.157309,-3.554924 z"
     inkscape:randomized="0"
     inkscape:rounded="0"
     inkscape:flatsided="false"
     sodipodi:arg2="4.1887902"
     sodipodi:arg1="3.1415927"
     sodipodi:r2="4.1048727"
     sodipodi:r1="8.2097454"
     sodipodi:cy="14.511544"
     sodipodi:cx="-40.783897"
     sodipodi:sides="3"
     id="path5137"
     style="opacity:1;fill:#ff0000;fill-opacity:1;stroke:none;stroke-width:3.25;stroke-linecap:round;stroke-linejoin:round;stroke-miterlimit:4;stroke-dasharray:none;stroke-dashoffset:0"
     sodipodi:type="star"
     inkscape:transform-center-y="35.643146" />
  <path
     inkscape:transform-center-y="-35.804957"
     inkscape:transform-center-x="2.002716e-005"
     d="m 18.557981,86.12146 a 4.0464354,3.972476 0 0 1 -4.040043,3.972471 4.0464354,3.972476 0 0 1 -4.052807,-3.959922 4.0464354,3.972476 0 0 1 4.027241,-3.98498 4.0464354,3.972476 0 0 1 4.065529,3.947333"
     sodipodi:open="true"
     sodipodi:end="6.2768672"
     sodipodi:start="0"
     sodipodi:ry="3.972476"
     sodipodi:rx="4.0464354"
     sodipodi:cy="86.12146"
     sodipodi:cx="14.511546"
     sodipodi:type="arc"
     id="path5175"
     style="opacity:1;fill:#ff0000;fill-opacity:1;stroke:none;stroke-width:2.35324574;stroke-linecap:round;stroke-linejoin:round;stroke-miterlimit:4;stroke-dasharray:none;stroke-dashoffset:0" />
</svg>
