<?xml version="1.0" encoding="UTF-8" standalone="no"?>
<svg
   xmlns:dc="http://purl.org/dc/elements/1.1/"
   xmlns:cc="http://creativecommons.org/ns#"
   xmlns:rdf="http://www.w3.org/1999/02/22-rdf-syntax-ns#"
   xmlns:svg="http://www.w3.org/2000/svg"
   xmlns="http://www.w3.org/2000/svg"
   xmlns:sodipodi="http://sodipodi.sourceforge.net/DTD/sodipodi-0.dtd"
   xmlns:inkscape="http://www.inkscape.org/namespaces/inkscape"
   version="1.1"
   x="0px"
   y="0px"
   viewBox="0 0 100.633 100.633"
   id="svg10"
   sodipodi:docname="dog.svg"
   inkscape:version="0.92.1 r15371"
   width="100.633"
   height="100.633"
   inkscape:export-filename="C:\cygwin64\home\Alexander_Pruss\android\Shogi\app\src\main\res\drawable\animal_fu.png"
   inkscape:export-xdpi="114.47536"
   inkscape:export-ydpi="114.47536">
  <metadata
     id="metadata16">
    <rdf:RDF>
      <cc:Work
         rdf:about="">
        <dc:format>image/svg+xml</dc:format>
        <dc:type
           rdf:resource="http://purl.org/dc/dcmitype/StillImage" />
        <dc:title></dc:title>
      </cc:Work>
    </rdf:RDF>
  </metadata>
  <defs
     id="defs14" />
  <sodipodi:namedview
     pagecolor="#ffffff"
     bordercolor="#666666"
     borderopacity="1"
     objecttolerance="10"
     gridtolerance="10"
     guidetolerance="10"
     inkscape:pageopacity="0"
     inkscape:pageshadow="2"
     inkscape:window-width="1366"
     inkscape:window-height="715"
     id="namedview12"
     showgrid="false"
     inkscape:snap-bbox="true"
     inkscape:zoom="3.776"
     inkscape:cx="6.9637244"
     inkscape:cy="38.134281"
     inkscape:window-x="-8"
     inkscape:window-y="-8"
     inkscape:window-maximized="1"
     inkscape:current-layer="svg10"
     fit-margin-top="0"
     fit-margin-left="0"
     fit-margin-right="0"
     fit-margin-bottom="0"
     inkscape:snap-object-midpoints="true"
     inkscape:snap-center="true"
     showguides="true"
     inkscape:guide-bbox="true">
    <sodipodi:guide
       position="86.121457,50.316519"
       orientation="1,0"
       id="guide4505"
       inkscape:locked="false" />
    <sodipodi:guide
       position="14.511546,50.316481"
       orientation="1,0"
       id="guide4507"
       inkscape:locked="false" />
    <sodipodi:guide
       position="50.316481,86.121456"
       orientation="0,1"
       id="guide4509"
       inkscape:locked="false" />
    <sodipodi:guide
       position="50.316523,14.511543"
       orientation="0,1"
       id="guide6928"
       inkscape:locked="false" />
  </sodipodi:namedview>
  <rect
     style="opacity:1;fill:#ffdd55;fill-opacity:1;stroke:#000000;stroke-width:3.25;stroke-linecap:round;stroke-linejoin:round;stroke-miterlimit:4;stroke-dasharray:none;stroke-dashoffset:0"
     id="rect4493"
     width="87.193459"
     height="87.193459"
     x="6.7197742"
     y="6.7197742"
     ry="10.738318"
     rx="10.738318" />
  <path
     style="opacity:1;fill:#ff0000;fill-opacity:1;stroke:none;stroke-width:2.35324574;stroke-linecap:round;stroke-linejoin:round;stroke-miterlimit:4;stroke-dasharray:none;stroke-dashoffset:0"
     id="path4495"
     sodipodi:type="arc"
     sodipodi:cx="50.316483"
     sodipodi:cy="14.511544"
     sodipodi:rx="4.0464354"
     sodipodi:ry="3.972476"
     sodipodi:start="0"
     sodipodi:end="6.2768672"
     sodipodi:open="true"
     d="m 54.362918,14.511544 a 4.0464354,3.972476 0 0 1 -4.040044,3.972471 4.0464354,3.972476 0 0 1 -4.052807,-3.959922 4.0464354,3.972476 0 0 1 4.027241,-3.98498 4.0464354,3.972476 0 0 1 4.065529,3.947333"
     inkscape:transform-center-x="2.002716e-005"
     inkscape:transform-center-y="-35.804957" />
  <path
     inkscape:transform-center-y="35.804956"
     inkscape:transform-center-x="-2.1934509e-005"
     d="m -46.270089,-86.12146 a 4.0464354,3.972476 0 0 1 -4.040044,3.972471 4.0464354,3.972476 0 0 1 -4.052807,-3.959922 4.0464354,3.972476 0 0 1 4.027241,-3.98498 4.0464354,3.972476 0 0 1 4.065529,3.947333"
     sodipodi:open="true"
     sodipodi:end="6.2768672"
     sodipodi:start="0"
     sodipodi:ry="3.972476"
     sodipodi:rx="4.0464354"
     sodipodi:cy="-86.12146"
     sodipodi:cx="-50.316525"
     sodipodi:type="arc"
     id="path4497"
     style="opacity:1;fill:#ff0000;fill-opacity:1;stroke:none;stroke-width:2.35324574;stroke-linecap:round;stroke-linejoin:round;stroke-miterlimit:4;stroke-dasharray:none;stroke-dashoffset:0"
     transform="scale(-1)" />
  <path
     transform="scale(-1)"
     style="opacity:1;fill:#ff0000;fill-opacity:1;stroke:none;stroke-width:2.35324574;stroke-linecap:round;stroke-linejoin:round;stroke-miterlimit:4;stroke-dasharray:none;stroke-dashoffset:0"
     id="path4499"
     sodipodi:type="arc"
     sodipodi:cx="-50.316525"
     sodipodi:cy="-86.12146"
     sodipodi:rx="4.0464354"
     sodipodi:ry="3.972476"
     sodipodi:start="0"
     sodipodi:end="6.2768672"
     sodipodi:open="true"
     d="m -46.270089,-86.12146 a 4.0464354,3.972476 0 0 1 -4.040044,3.972471 4.0464354,3.972476 0 0 1 -4.052807,-3.959922 4.0464354,3.972476 0 0 1 4.027241,-3.98498 4.0464354,3.972476 0 0 1 4.065529,3.947333"
     inkscape:transform-center-x="-2.1934509e-005"
     inkscape:transform-center-y="35.804956" />
  <path
     inkscape:transform-center-y="-1.983461e-005"
     inkscape:transform-center-x="-35.804956"
     d="m 54.362918,-86.12146 a 4.0464354,3.972476 0 0 1 -4.040044,3.972471 4.0464354,3.972476 0 0 1 -4.052807,-3.959922 4.0464354,3.972476 0 0 1 4.027241,-3.98498 4.0464354,3.972476 0 0 1 4.065529,3.947333"
     sodipodi:open="true"
     sodipodi:end="6.2768672"
     sodipodi:start="0"
     sodipodi:ry="3.972476"
     sodipodi:rx="4.0464354"
     sodipodi:cy="-86.12146"
     sodipodi:cx="50.316483"
     sodipodi:type="arc"
     id="path4501"
     style="opacity:1;fill:#ff0000;fill-opacity:1;stroke:none;stroke-width:2.35324574;stroke-linecap:round;stroke-linejoin:round;stroke-miterlimit:4;stroke-dasharray:none;stroke-dashoffset:0"
     transform="rotate(90)" />
  <path
     transform="rotate(-90)"
     style="opacity:1;fill:#ff0000;fill-opacity:1;stroke:none;stroke-width:2.35324574;stroke-linecap:round;stroke-linejoin:round;stroke-miterlimit:4;stroke-dasharray:none;stroke-dashoffset:0"
     id="path4503"
     sodipodi:type="arc"
     sodipodi:cx="-50.316521"
     sodipodi:cy="14.511546"
     sodipodi:rx="4.0464354"
     sodipodi:ry="3.972476"
     sodipodi:start="0"
     sodipodi:end="6.2768672"
     sodipodi:open="true"
     d="m -46.270085,14.511546 a 4.0464354,3.972476 0 0 1 -4.040044,3.972471 4.0464354,3.972476 0 0 1 -4.052807,-3.959922 4.0464354,3.972476 0 0 1 4.027241,-3.98498 4.0464354,3.972476 0 0 1 4.065529,3.947333"
     inkscape:transform-center-x="35.804956"
     inkscape:transform-center-y="1.8312361e-005" />
  <path
     inkscape:transform-center-y="-35.804957"
     inkscape:transform-center-x="2.002716e-005"
     d="m 18.557981,14.511544 a 4.0464354,3.972476 0 0 1 -4.040043,3.972471 4.0464354,3.972476 0 0 1 -4.052807,-3.959922 4.0464354,3.972476 0 0 1 4.027241,-3.98498 4.0464354,3.972476 0 0 1 4.065529,3.947333"
     sodipodi:open="true"
     sodipodi:end="6.2768672"
     sodipodi:start="0"
     sodipodi:ry="3.972476"
     sodipodi:rx="4.0464354"
     sodipodi:cy="14.511544"
     sodipodi:cx="14.511546"
     sodipodi:type="arc"
     id="path4511"
     style="opacity:1;fill:#ff0000;fill-opacity:1;stroke:none;stroke-width:2.35324574;stroke-linecap:round;stroke-linejoin:round;stroke-miterlimit:4;stroke-dasharray:none;stroke-dashoffset:0" />
  <path
     style="opacity:1;fill:#ff0000;fill-opacity:1;stroke:none;stroke-width:2.35324574;stroke-linecap:round;stroke-linejoin:round;stroke-miterlimit:4;stroke-dasharray:none;stroke-dashoffset:0"
     id="path4513"
     sodipodi:type="arc"
     sodipodi:cx="86.12146"
     sodipodi:cy="14.511544"
     sodipodi:rx="4.0464354"
     sodipodi:ry="3.972476"
     sodipodi:start="0"
     sodipodi:end="6.2768672"
     sodipodi:open="true"
     d="m 90.167895,14.511544 a 4.0464354,3.972476 0 0 1 -4.040044,3.972471 4.0464354,3.972476 0 0 1 -4.052806,-3.959922 4.0464354,3.972476 0 0 1 4.027241,-3.98498 4.0464354,3.972476 0 0 1 4.065529,3.947333"
     inkscape:transform-center-x="2.002716e-005"
     inkscape:transform-center-y="-35.804957" />
  <g
     transform="matrix(0.91882675,0,0,0.91882675,4.1802602,1.8338461)"
     id="g12">
    <path
       inkscape:connector-curvature="0"
       d="M 84.3,37.1 C 79.6,29.1 66.6,23.6 62.6,22.1 L 62,21.8 c -3.4,-1.4 -7,-2.2 -10.7,-2.2 -0.3,0 -0.6,0 -0.9,0 -4.1,-0.1 -8.2,0.6 -11.9,2.3 L 38.2,22 c -3.8,1.2 -17,6.9 -21.9,14.7 -2.6,4.2 -2.6,8.6 -0.2,12.8 2.1,3.5 7.1,9.9 9.5,12.6 2,2.3 4.4,2.8 6.4,1.5 l 1.3,3.2 c -0.3,4.5 1.1,7.5 4.4,9.5 1.6,0.8 3.2,1.3 4.8,1.3 0.2,0 0.5,0 0.7,-0.1 2,1.4 4.5,2.1 7.1,2.1 2.6,0 5.1,-0.8 7.1,-2.1 1.9,0.2 3.8,-0.3 5.7,-1.3 3.2,-1.9 4.6,-5 4.3,-9.5 l 1.2,-3.1 c 2,1.2 4.3,0.6 6.2,-1.6 2.5,-2.8 7.4,-9.1 9.5,-12.6 2.4,-3.9 2.4,-8.1 0,-12.3 z M 30.7,60.4 c 0,0.4 -0.2,0.6 -0.3,0.7 -0.3,0.2 -1.1,0.9 -2.6,-0.8 -2.7,-3 -7.3,-9.1 -9.1,-12.2 -1.6,-2.6 -1.8,-5.2 -0.8,-7.8 2.7,-6.8 13.6,-12.3 18.9,-14.5 -1.1,2.4 -3,6 -4.3,8.5 -2.3,4.4 -3.7,7.1 -4,8.4 -0.4,1.3 -0.5,2.7 -0.5,4 0,3.6 1,6.8 1.8,9.4 0.5,1.6 1,3.1 1,4 0,0.1 0,0.2 -0.1,0.3 z m 16.6,16 c 1.1,-0.7 2.2,-1.6 3,-2.7 0.8,1.1 1.8,1.9 2.9,2.6 -1.8,0.6 -4,0.6 -5.9,0.1 z M 67.7,55.2 c -0.7,2.2 -1.3,4 -1.1,5.6 l -2.3,5.6 v 0.4 c 0.4,4.5 -1.1,6 -2.7,7 -1.3,0.7 -2.6,1 -3.9,0.9 l -0.4,-0.1 c -2.2,-0.4 -4.2,-2.1 -5.5,-4.4 l -0.4,-0.8 c 4.6,-0.7 5.2,-5.2 5.2,-6.4 0,-2.3 -2.1,-4 -4.8,-4 h -3.3 c -2.7,0 -4.9,1.7 -4.9,4 0,1.2 1.1,6 5.7,6.4 l -0.4,0.7 c -1.1,2.1 -2.8,3.6 -4.7,4.2 -1.7,0.5 -3.5,0.3 -5.2,-0.6 -1.7,-1 -3.2,-2.6 -2.8,-7 v -0.4 l -2.5,-6.1 c 0,0 0,-0.1 0,-0.1 0,-1.4 -0.5,-3.1 -1.1,-5 -0.8,-2.4 -1.7,-5.3 -1.7,-8.5 0,-1.1 0.1,-2.3 0.4,-3.5 0.2,-0.9 2.1,-4.5 3.8,-7.6 3.5,-6.5 4.9,-9.5 5.3,-11.2 2.8,-1.1 5.8,-1.6 8.9,-1.6 0.3,0 0.6,0.1 0.9,0.1 h 0.1 l 0.1,-0.1 c 3.3,-0.1 6.5,0.3 9.5,1.4 0.4,1.7 1.9,4.9 5.4,11.5 1.6,3.1 3.4,6.5 3.7,7.4 0.3,1.2 0.4,2.3 0.4,3.5 -0.1,3.4 -1,6.3 -1.7,8.7 z m 14,-7.2 c -1.8,3.1 -6.4,9.2 -9.1,12.2 -1.5,1.7 -2.3,1.1 -2.5,0.8 C 69.9,61 70,60.8 70,60.6 v 0 c 0,-0.1 -0.3,-0.3 -0.3,-0.5 0,-1 0.3,-2.5 0.8,-4 0.8,-2.5 1.8,-5.7 1.8,-9.4 0,-1.3 -0.1,-2.7 -0.5,-4.1 -0.3,-1.2 -1.7,-3.9 -3.9,-8.2 -1.3,-2.5 -3.3,-6.3 -4.4,-8.7 5.1,2.1 16.3,7.5 19,14.6 1,2.6 0.8,5.1 -0.8,7.7 z"
       id="path2-0" />
    <circle
       cx="40.599998"
       cy="49.900002"
       r="3"
       id="circle4" />
    <circle
       cx="60"
       cy="49.900002"
       r="3"
       id="circle6" />
    <path
       inkscape:connector-curvature="0"
       d="m 63.7,43 c -1.7,-0.9 -3.8,-1 -5.8,-0.3 -0.8,0.3 -1.2,1.1 -1,1.9 0.3,0.8 1.1,1.2 1.9,1 1.2,-0.4 2.5,-0.4 3.5,0.1 0.9,0.4 1.4,1.2 1.8,2.3 0.2,0.6 0.8,1.1 1.4,1.1 0.1,0 0.3,0 0.4,-0.1 0.8,-0.2 1.2,-1.1 1,-1.9 -0.5,-1.9 -1.6,-3.3 -3.2,-4.1 z"
       id="path8" />
    <path
       inkscape:connector-curvature="0"
       d="m 43.8,43.1 c -1.7,-0.9 -3.5,-1.1 -5.2,-0.6 -1.8,0.6 -3.4,2 -4.3,3.8 -0.4,0.7 -0.1,1.6 0.7,2 0.2,0.1 0.4,0.2 0.7,0.2 0.5,0 1.1,-0.3 1.3,-0.8 0.6,-1.2 1.5,-2 2.5,-2.3 0.9,-0.3 1.9,-0.2 2.9,0.3 0.7,0.4 1.6,0.1 2,-0.6 0.4,-0.7 0.1,-1.6 -0.6,-2 z"
       id="path10" />
  </g>
</svg>
