<svg xmlns="http://www.w3.org/2000/svg" xmlns:xlink="http://www.w3.org/1999/xlink" version="1.1" x="0px" y="0px" viewBox="0 0 100 125" style="enable-background:new 0 0 100 100;" xml:space="preserve"><g><path d="M84.3,37.1c-4.7-8-17.7-13.5-21.7-15l-0.6-0.3c-3.4-1.4-7-2.2-10.7-2.2c-0.3,0-0.6,0-0.9,0c-4.1-0.1-8.2,0.6-11.9,2.3   l-0.3,0.1c-3.8,1.2-17,6.9-21.9,14.7c-2.6,4.2-2.6,8.6-0.2,12.8c2.1,3.5,7.1,9.9,9.5,12.6c2,2.3,4.4,2.8,6.4,1.5l1.3,3.2   c-0.3,4.5,1.1,7.5,4.4,9.5c1.6,0.8,3.2,1.3,4.8,1.3c0.2,0,0.5,0,0.7-0.1c2,1.4,4.5,2.1,7.1,2.1c2.6,0,5.1-0.8,7.1-2.1   c1.9,0.2,3.8-0.3,5.7-1.3c3.2-1.9,4.6-5,4.3-9.5l1.2-3.1c2,1.2,4.3,0.6,6.2-1.6c2.5-2.8,7.4-9.1,9.5-12.6   C86.7,45.5,86.7,41.3,84.3,37.1z M30.7,60.4c0,0.4-0.2,0.6-0.3,0.7c-0.3,0.2-1.1,0.9-2.6-0.8c-2.7-3-7.3-9.1-9.1-12.2   c-1.6-2.6-1.8-5.2-0.8-7.8c2.7-6.8,13.6-12.3,18.9-14.5c-1.1,2.4-3,6-4.3,8.5c-2.3,4.4-3.7,7.1-4,8.4C28.1,44,28,45.4,28,46.7   c0,3.6,1,6.8,1.8,9.4c0.5,1.6,1,3.1,1,4C30.8,60.2,30.8,60.3,30.7,60.4z M47.3,76.4c1.1-0.7,2.2-1.6,3-2.7c0.8,1.1,1.8,1.9,2.9,2.6   C51.4,76.9,49.2,76.9,47.3,76.4z M67.7,55.2c-0.7,2.2-1.3,4-1.1,5.6l-2.3,5.6l0,0.4c0.4,4.5-1.1,6-2.7,7c-1.3,0.7-2.6,1-3.9,0.9   l-0.4-0.1c-2.2-0.4-4.2-2.1-5.5-4.4l-0.4-0.8c4.6-0.7,5.2-5.2,5.2-6.4c0-2.3-2.1-4-4.8-4h-3.3c-2.7,0-4.9,1.7-4.9,4   c0,1.2,1.1,6,5.7,6.4l-0.4,0.7c-1.1,2.1-2.8,3.6-4.7,4.2c-1.7,0.5-3.5,0.3-5.2-0.6c-1.7-1-3.2-2.6-2.8-7l0-0.4l-2.5-6.1   c0,0,0-0.1,0-0.1c0-1.4-0.5-3.1-1.1-5c-0.8-2.4-1.7-5.3-1.7-8.5c0-1.1,0.1-2.3,0.4-3.5c0.2-0.9,2.1-4.5,3.8-7.6   c3.5-6.5,4.9-9.5,5.3-11.2c2.8-1.1,5.8-1.6,8.9-1.6c0.3,0,0.6,0.1,0.9,0.1h0.1l0.1-0.1c3.3-0.1,6.5,0.3,9.5,1.4   c0.4,1.7,1.9,4.9,5.4,11.5c1.6,3.1,3.4,6.5,3.7,7.4c0.3,1.2,0.4,2.3,0.4,3.5C69.3,49.9,68.4,52.8,67.7,55.2z M81.7,48   c-1.8,3.1-6.4,9.2-9.1,12.2c-1.5,1.7-2.3,1.1-2.5,0.8C69.9,61,70,60.8,70,60.6v0c0-0.1-0.3-0.3-0.3-0.5c0-1,0.3-2.5,0.8-4   c0.8-2.5,1.8-5.7,1.8-9.4c0-1.3-0.1-2.7-0.5-4.1c-0.3-1.2-1.7-3.9-3.9-8.2c-1.3-2.5-3.3-6.3-4.4-8.7c5.1,2.1,16.3,7.5,19,14.6   C83.5,42.9,83.3,45.4,81.7,48z"/><circle cx="40.6" cy="49.9" r="3"/><circle cx="60" cy="49.9" r="3"/><path d="M63.7,43c-1.7-0.9-3.8-1-5.8-0.3c-0.8,0.3-1.2,1.1-1,1.9c0.3,0.8,1.1,1.2,1.9,1c1.2-0.4,2.5-0.4,3.5,0.1   c0.9,0.4,1.4,1.2,1.8,2.3c0.2,0.6,0.8,1.1,1.4,1.1c0.1,0,0.3,0,0.4-0.1c0.8-0.2,1.2-1.1,1-1.9C66.4,45.2,65.3,43.8,63.7,43z"/><path d="M43.8,43.1c-1.7-0.9-3.5-1.1-5.2-0.6c-1.8,0.6-3.4,2-4.3,3.8c-0.4,0.7-0.1,1.6,0.7,2c0.2,0.1,0.4,0.2,0.7,0.2   c0.5,0,1.1-0.3,1.3-0.8c0.6-1.2,1.5-2,2.5-2.3c0.9-0.3,1.9-0.2,2.9,0.3c0.7,0.4,1.6,0.1,2-0.6C44.8,44.4,44.5,43.5,43.8,43.1z"/></g><text x="0" y="115" fill="#000000" font-size="5px" font-weight="bold" font-family="'Helvetica Neue', Helvetica, Arial-Unicode, Arial, Sans-serif">Created by Andrea Harris</text><text x="0" y="120" fill="#000000" font-size="5px" font-weight="bold" font-family="'Helvetica Neue', Helvetica, Arial-Unicode, Arial, Sans-serif">from the Noun Project</text></svg>